<?xml version="1.0" encoding="iso-8859-1"?>
<!-- Generator: Adobe Illustrator 19.0.0, SVG Export Plug-In . SVG Version: 6.00 Build 0)  -->
<svg version="1.1" id="Capa_1" xmlns="http://www.w3.org/2000/svg" xmlns:xlink="http://www.w3.org/1999/xlink" x="0px" y="0px"
	 viewBox="0 0 57.086 57.086" style="enable-background:new 0 0 57.086 57.086;" xml:space="preserve">
<g>
	<g>
		<g>
			<path fill="#29a2cd" d="M44.004,32.656C52.355,21.047,58.383,6.661,53.11,2.869c-0.722-0.52-1.604-0.783-2.622-0.783
				c-5.378,0-14.721,7.77-22.721,18.893c-8.351,11.61-14.38,25.996-9.107,29.788c0.723,0.52,1.604,0.783,2.622,0.783
				C26.66,51.55,36.004,43.78,44.004,32.656z"/>
			<path fill="#29a2cd" d="M25.892,16.325c-2.647-3.737-5.39-6.987-8.036-9.587l-9.27,0.768l-4.795,7.519c1.259,3.727,3.125,7.804,5.46,11.936
				l5.084-10.418L25.892,16.325z"/>
			<path fill="#2283a5" d="M15.884,4.894C12.327,1.783,9.057,0,6.593,0c-0.88,0-1.664,0.214-2.331,0.637c-2.466,1.562-2.929,5.559-1.34,11.559
				c0.028,0.105,0.066,0.217,0.095,0.323l4.414-6.925L15.884,4.894z"/>
			<path fill="#2283a5" d="M17.335,36.408c1.77-5.188,5.092-11.31,9.355-17.238l0.187-0.253c0.133-0.182,0.193-0.398,0.188-0.614L15.597,18.52
				l-5.136,10.522c0.374,0.623,0.749,1.245,1.143,1.867c1.267,1.999,2.607,3.943,3.984,5.778c0.19,0.254,0.488,0.399,0.8,0.399
				c0.052,0,0.104-0.004,0.157-0.013C16.912,37.016,17.215,36.76,17.335,36.408z"/>
			<path fill="#2283a5" d="M43.844,45.938c-0.237,0-0.478,0.012-0.72,0.035c-0.328-1.427-0.776-2.946-1.335-4.532
				c-0.118-0.335-0.404-0.582-0.753-0.649c-0.347-0.069-0.706,0.054-0.94,0.32c-3.574,4.055-7.142,7.265-10.316,9.284
				c-0.264,0.168-0.435,0.451-0.46,0.763c-0.025,0.313,0.098,0.619,0.332,0.828c2.61,2.325,6.385,5.098,9.541,5.099
				c0.88,0,1.664-0.215,2.331-0.638c1.39-0.881,2.143-2.543,2.24-4.947c0.716-0.255,1.473-0.384,2.257-0.384
				c1.994,0,3.521,0.833,3.533,0.84c0.154,0.087,0.323,0.129,0.491,0.129c0.003,0,0.007,0,0.011,0c0.548,0.042,1.009-0.444,1.009-1
				c0-0.233-0.079-0.448-0.213-0.618C50.373,49.58,48.149,45.938,43.844,45.938z"/>
		</g>
	</g>
</g>
<g>
</g>
<g>
</g>
<g>
</g>
<g>
</g>
<g>
</g>
<g>
</g>
<g>
</g>
<g>
</g>
<g>
</g>
<g>
</g>
<g>
</g>
<g>
</g>
<g>
</g>
<g>
</g>
<g>
</g>
</svg>
